<svg xmlns="http://www.w3.org/2000/svg" xml:space="preserve" width="24" height="24" viewBox="0 0 6.35 6.35"><rect width="6.35" height="6.35" fill="#3d521e" paint-order="stroke fill markers" rx=".481" ry=".498"/><path fill="#fff" d="M3.525 5.285c0-.005-.015-.017-.033-.027a.57.57 0 0 1-.269-.322c-.03-.103-.028-.06-.03-.992l-.002-.865.117.003c.128.003.18.012.28.044.203.066.412.227.57.44.026.035.047.058.053.058.01 0 .01-.034.01-.631 0-.61 0-.63-.01-.63-.008 0-.02.015-.04.048a1.094 1.094 0 0 1-.27.301 1.06 1.06 0 0 1-.617.176h-.093v-.613c0-.396.002-.64.006-.686.018-.205.087-.317.223-.36a.81.81 0 0 1 .297.001c.155.033.273.089.425.2.167.124.312.272.518.528.063.079.202.262.234.31.016.023.017.023.03.013.01-.006.002-.054-.11-.727-.111-.666-.12-.72-.13-.72a.172.172 0 0 0-.052.042c-.106.108-.252.167-.456.185-.041.003-.501.006-1.224.006-1.01 0-1.158 0-1.158.008 0 .004.012.013.026.02.068.03.15.1.194.163.047.07.08.157.097.255.01.062.011.106.011 1.667a86.25 86.25 0 0 1-.006 1.647.553.553 0 0 1-.278.423c-.024.015-.044.03-.044.034 0 .007.118.009.865.009.74 0 .866-.002.866-.008z"/></svg>