<svg xmlns="http://www.w3.org/2000/svg" xmlns:xlink="http://www.w3.org/1999/xlink" width="24" height="24"><defs><radialGradient xlink:href="#a" id="b" cx="15.531" cy="6.259" r="10" fx="15.531" fy="6.259" gradientTransform="matrix(-.38057 1.07472 -.94264 -.3338 27.879 3.11)" gradientUnits="userSpaceOnUse"/><linearGradient id="a"><stop offset="0" stop-color="#656565"/><stop offset="1" stop-color="#3d521e"/></linearGradient></defs><rect width="20" height="20" x="2" y="2" fill="url(#b)" paint-order="stroke fill markers" rx="1.514" ry="1.57"/><path fill="#fff" d="M11.35 18.03c0-.014-.045-.05-.1-.082-.405-.226-.721-.604-.834-.998-.092-.319-.088-.187-.094-3.072l-.007-2.678.364.01c.396.01.558.035.867.135.628.204 1.277.704 1.764 1.361.08.109.146.18.164.18.03 0 .03-.104.03-1.953 0-1.887 0-1.954-.031-1.954-.022 0-.063.05-.124.15-.225.369-.548.729-.837.935-.497.354-1.164.545-1.908.545h-.287v-1.9c0-1.226.006-1.98.019-2.124.054-.635.269-.982.69-1.114.177-.056.65-.054.92.003.48.102.846.275 1.314.62.517.383.969.842 1.605 1.633.197.245.625.812.724.96.05.072.052.074.094.043.029-.021.006-.17-.341-2.251-.344-2.064-.374-2.23-.405-2.23-.02 0-.09.057-.16.129-.326.333-.78.517-1.412.572-.126.011-1.55.018-3.789.018-3.125 0-3.586.003-3.586.025 0 .014.036.042.08.061.21.093.468.31.601.507.146.216.249.484.3.788.034.194.035.33.035 5.162 0 3.416-.006 5.006-.019 5.1-.08.584-.363 1.015-.861 1.312-.075.044-.136.092-.136.106 0 .021.366.025 2.68.025 2.29 0 2.68-.004 2.68-.025z"/><g stroke-width="1.1" transform="translate(32.182 2.182) scale(.9091)"><rect width="11" height="11" x="-20" y="13" fill="#c4a000" rx="2.213"/><g fill="#fcffff"><path d="M-15 14v2.063a2.501 2.501 0 0 0-1.375.78l-1.781-1.03-.5.874 1.781 1.032A2.46 2.46 0 0 0-17 18.5c0 .275.043.534.125.781l-1.781 1.032.5.875 1.781-1.032c.353.4.833.67 1.375.782V23h1v-2.063a2.501 2.501 0 0 0 1.375-.78l1.781 1.03.5-.875-1.781-1.03A2.46 2.46 0 0 0-12 18.5a2.46 2.46 0 0 0-.125-.781l1.781-1.032-.5-.875-1.781 1.032A2.49 2.49 0 0 0-14 16.062V14Zm.5 3.5a1 1 0 1 1 0 2 1 1 0 0 1 0-2z"/><path fill-rule="evenodd" d="m-19 19 9-.01v-2C-10 14-11 14-14.5 14s-4.5 0-4.5 3Z" opacity=".3"/></g></g></svg>