<?xml version="1.0" encoding="UTF-8" standalone="no"?>
<!-- Created with Inkscape (http://www.inkscape.org/) -->

<svg
   width="512.70013mm"
   height="286.78726mm"
   viewBox="0 0 512.70013 286.78726"
   version="1.1"
   id="svg5"
   xml:space="preserve"
   inkscape:version="1.2.2 (b0a8486541, 2022-12-01)"
   sodipodi:docname="felt_logo_white.svg"
   xmlns:inkscape="http://www.inkscape.org/namespaces/inkscape"
   xmlns:sodipodi="http://sodipodi.sourceforge.net/DTD/sodipodi-0.dtd"
   xmlns="http://www.w3.org/2000/svg"
   xmlns:svg="http://www.w3.org/2000/svg"><sodipodi:namedview
     id="namedview7"
     pagecolor="#ffffff"
     bordercolor="#000000"
     borderopacity="0.25"
     inkscape:showpageshadow="2"
     inkscape:pageopacity="0.0"
     inkscape:pagecheckerboard="0"
     inkscape:deskcolor="#d1d1d1"
     inkscape:document-units="mm"
     showgrid="false"
     inkscape:zoom="0.22037468"
     inkscape:cx="716.96076"
     inkscape:cy="614.86192"
     inkscape:window-width="1499"
     inkscape:window-height="1236"
     inkscape:window-x="2982"
     inkscape:window-y="68"
     inkscape:window-maximized="0"
     inkscape:current-layer="layer1" /><defs
     id="defs2" /><g
     inkscape:label="Layer 1"
     inkscape:groupmode="layer"
     id="layer1"
     transform="translate(184.60582,9.7695437)"><path
       style="fill:#ffffff;stroke-width:0.352778"
       d="m 44.952713,276.64485 c -22.36731,-2.15535 -42.9206203,-14.6346 -55.71058,-33.82552 -3.1357,-4.70502 -7.93176,-14.44901 -9.81064,-19.93194 -6.870784,-20.05025 -7.443399,-46.0603 -1.52223,-69.14444 6.35483,-24.77478 19.7516796,-44.68232 38.38185,-57.034934 16.93129,-11.22617 36.76767,-15.07232 56.89752,-11.03209 20.732463,4.16118 38.194157,17.710404 47.668747,36.988104 5.18748,10.55482 7.32796,20.10119 7.70017,34.34211 l 0.20515,7.8493 H 81.565953 34.369223 l 0.24063,4.32153 c 1.24532,22.36541 6.48633,39.02051 16.0871,51.1223 12.57772,15.85422 35.72192,19.82087 56.268067,9.64369 7.05409,-3.49412 12.8924,-8.6446 17.1223,-15.10509 2.13842,-3.26608 2.22356,-3.34689 3.12138,-2.96251 0.50764,0.21734 0.96988,0.42314 1.02719,0.45734 0.22277,0.13291 -2.08287,8.65632 -3.24179,11.98419 -2.56901,7.37697 -5.08877,12.48779 -9.32353,18.91086 -9.41603,14.2818 -22.909564,24.60191 -39.092667,29.89884 -10.43221,3.41459 -20.76821,4.56445 -31.62519,3.51826 z m 20.5575,-130.22204 c -0.0101,-22.19698 -2.78909,-40.89824 -7.05916,-47.504874 -3.35735,-5.19447 -8.50878,-6.1032 -13.01887,-2.29659 -2.68157,2.2633 -5.5235,8.118814 -7.25429,14.946704 -2.13286,8.41409 -3.69765,24.10095 -3.70556,37.14781 l -0.003,5.20347 h 15.52223 15.52222 l -0.004,-7.49652 z M 257.95391,276.68059 c -21.41245,-2.27506 -36.72843,-15.85677 -38.6152,-34.24265 -0.24017,-2.34035 -0.36674,-27.00079 -0.36674,-71.44626 v -67.87234 h -7.59467 -7.59464 l 0.10823,70.64374 c 0.10118,66.01739 0.1493,70.84876 0.73502,73.77414 1.29786,6.48228 3.38522,11.66758 6.40838,15.91961 1.54795,2.17719 4.8985,5.56092 6.61476,6.68033 2.55161,1.66424 4.0833,1.60995 -45.42014,1.60995 -52.62706,0 -48.37602,0.28501 -44.07396,-2.95491 6.51491,-4.90644 11.08616,-14.24316 12.1559,-24.82831 0.26854,-2.65723 0.3481,-32.47713 0.26611,-99.74594 L 140.46,48.262396 l -0.77121,-3.25421 c -2.58816,-10.92113 -7.11606,-18.4547 -13.83361,-23.0165 -1.17327,-0.79675 -2.13322,-1.5807 -2.13322,-1.74211 0,-0.36251 2.11255,-0.72936 4.23334,-0.73511 4.41368,-0.012 16.87134,-1.93637 24.34167,-3.76016 13.74063,-3.3546 28.43646,-9.4643797 38.27638,-15.91339967 3.96653,-2.59964003 9.73819,-7.13870003 11.25538,-8.85169003 0.36961,-0.41732 0.96492,-0.75876 1.32292,-0.75876 0.62978,0 0.65087,1.72185 0.65087,53.0930497 0,38.07493 0.10873,53.09305 0.38442,53.09305 0.53453,0 10.48929,-6.58422 16.01975,-10.5957 17.7625,-12.8839 34.99548,-29.18593 49.39926,-46.73068 3.58256,-4.36381 12.81829,-16.59177 13.12273,-17.37431 0.0943,-0.24253 0.47206,-0.44097 0.83937,-0.44097 0.6495,0 0.66781,0.75026 0.66781,27.34028 v 27.34027 h 19.05 19.05 v 13.58195 13.581944 h -19.05 -19.05 l 0.005,63.4118 c 0.005,60.43219 0.0355,63.56116 0.66072,66.59041 1.65859,8.03591 6.28061,13.10203 13.50793,14.80587 6.57384,1.54977 16.38113,-0.20847 25.64966,-4.59846 1.82073,-0.86238 3.43094,-1.56796 3.57823,-1.56796 1.77648,0 -1.75521,4.82926 -8.37459,11.45146 -9.36082,9.36481 -20.50659,16.55437 -31.14601,20.09068 -8.88573,2.95341 -21.18812,4.33098 -30.1625,3.37745 z m -442.55973,-5.42897 c 0,-0.27252 0.91281,-1.00635 2.02847,-1.63073 8.62087,-4.82468 14.59989,-12.28937 16.99838,-21.22215 1.66385,-6.19676 1.61065,-2.61555 1.61065,-108.41413 0,-95.558804 -0.028,-99.994804 -0.65248,-103.540274 -0.88575,-5.02842 -2.08999,-8.71045 -4.15364,-12.7 -3.13555,-6.06178 -7.26364,-10.26631 -12.91181,-13.15086 -1.60401,-0.8191797 -2.9171,-1.6843197 -2.91798,-1.9225397 -0.001,-0.34061 16.10698,-0.4588 75.40465,-0.55329 82.344658,-0.13122 76.386111,0.0198 84.502543,-2.14125 7.24365,-1.92864 12.28752,-4.74084 16.9322096,-9.44051 1.50984,-1.52771 3.02298,-2.77766 3.36253,-2.77766 0.5457,0 1.48241,5.21133 8.0689801,44.8909697 6.8506203,41.27038 7.4045503,44.92854 6.8680303,45.35678 -0.6894803,0.55032 -0.18256,1.13384 -6.9096203,-7.95367 -12.5982301,-17.01878 -24.8588597,-31.06483 -34.0379617,-38.99463 -15.695384,-13.5592 -27.770128,-19.06252 -42.891567,-19.54876 -4.284983,-0.13778 -6.253508,-0.052 -8.173254,0.35614 -6.879488,1.46261 -11.537259,5.86283 -13.846303,13.08066 -1.989458,6.21883 -1.969332,5.70659 -1.969332,50.12501 v 40.922224 l 6.173611,-0.0826 c 7.042256,-0.0942 12.422657,-0.74307 18.103589,-2.18316 7.766132,-1.96868 14.2907,-4.86141 19.795526,-8.77653 5.768965,-4.10298 12.657413,-11.835144 17.050414,-19.138764 1.050078,-1.74582 1.900781,-2.7833 2.288667,-2.79115 0.584348,-0.0118 0.617361,2.09099 0.617361,39.322214 0,37.22737 -0.03309,39.33459 -0.617361,39.33231 -0.339549,-0.001 -1.014236,-0.59247 -1.499306,-1.31366 -3.834232,-5.70058 -11.252073,-13.75361 -16.756945,-18.19184 -12.708138,-10.24577 -25.353395,-14.70488 -41.715973,-14.71033 l -3.615972,-0.001 v 52.22502 c 0,34.82531 0.126055,53.35547 0.378347,55.61806 0.492273,4.41474 1.776787,9.42116 3.226315,12.57464 2.73436,5.94864 8.693655,12.19684 14.871828,15.59279 1.285571,0.70664 2.337399,1.50835 2.337399,1.78158 0,0.42505 -7.79568,0.4968 -53.974995,0.4968 -46.11221,0 -53.975,-0.0722 -53.975,-0.49549 z"
       id="path2980" /></g></svg>
