<?xml version="1.0" encoding="UTF-8" standalone="no"?>
<svg
   width="437"
   height="107"
   viewBox="0 0 437 107"
   fill="none"
   version="1.1"
   id="svg17"
   sodipodi:docname="felt_header.svg"
   inkscape:version="1.2.2 (b0a8486541, 2022-12-01)"
   xmlns:inkscape="http://www.inkscape.org/namespaces/inkscape"
   xmlns:sodipodi="http://sodipodi.sourceforge.net/DTD/sodipodi-0.dtd"
   xmlns="http://www.w3.org/2000/svg"
   xmlns:svg="http://www.w3.org/2000/svg">
  <sodipodi:namedview
     id="namedview19"
     pagecolor="#ffffff"
     bordercolor="#000000"
     borderopacity="0.25"
     inkscape:showpageshadow="2"
     inkscape:pageopacity="0.0"
     inkscape:pagecheckerboard="0"
     inkscape:deskcolor="#d1d1d1"
     showgrid="false"
     inkscape:zoom="1.0627569"
     inkscape:cx="707.59361"
     inkscape:cy="54.575039"
     inkscape:window-width="2560"
     inkscape:window-height="1403"
     inkscape:window-x="0"
     inkscape:window-y="0"
     inkscape:window-maximized="1"
     inkscape:current-layer="svg17" />
  <rect
     width="437"
     height="107"
     fill="#3d521e"
     id="rect2"
     x="0"
     y="0"
     clip-path="url(#clipPath328)" />
  <path
     d="m 147.247,43.9206 -2.297,-2.7778 c -0.653,-0.2364 -1.352,-0.319 -2.043,-0.2413 -0.69,0.0777 -1.354,0.3136 -1.938,0.6892 -2.011,1.0433 -3.714,0.8915 -5.648,-1.179 -1.811,-1.9395 -4.118,-3.4637 -5.333,-6.0492 -0.946,-0.1248 -1.83,-0.2355 -2.713,-0.358 -2.123,-0.295 -4.287,-0.448 -6.195,-1.814 -0.53,-0.4307 -1.193,-0.6632 -1.876,-0.6573 -0.682,0.0059 -1.341,0.2497 -1.864,0.6894 -0.68,0.4753 -1.119,1.2499 -1.803,1.7185 -0.828,0.4925 -1.689,0.9256 -2.578,1.2961 -0.438,-0.3121 -0.833,-0.6798 -1.177,-1.0939 -0.311,-0.6341 -0.819,-1.1499 -1.449,-1.4697 -0.63,-0.3197 -1.347,-0.4261 -2.042,-0.303 -1.902,0.1897 -3.811,0.3496 -6.041,0.5511 -0.247,-1.2067 -0.634,-2.1917 -0.601,-3.1096 0.078,-2.1379 -0.675,-3.766 -2.9059,-4.7353 C 96.0998,23.9277 95.2557,21.136 93.1401,19.4417 92.3423,18.803 92.2176,17.2526 91.9285,16.1028 91.4537,14.2156 91.0684,12.3169 90.6961,10.4208 90.3442,8.63018 89.5759,7.32379 87.4353,7.05122 85.7038,6.79066 84.0886,6.02184 82.7945,4.84225 80.6825,3.01258 78.5451,2.62747 75.9494,3.01396 72.7788,3.48555 69.4342,3.5385 66.0932,2.27579 62.1253,0.777145 60.83,-1.22894 61.4432,-4.94739 c 0.0467,-0.28224 0.1036,-0.55687 0.1508,-0.83872 0.5759,-3.26106 -0.6078,-4.40289 -3.9568,-3.52152 -2.0664,0.59154 -4.0686,1.38767 -5.977,2.37663 -2.0716,1.01808 -3.2222,2.75272 -2.5156,5.25616 0.567,2.009057 -0.3983,2.98074 -1.8917,3.73305 -0.4906,0.29887 -1.0241,0.52067 -1.582,0.65762 -4.2996,0.68825 -7.6057,3.21979 -11.5387,4.5933 -1.0082,0.35209 -1.7487,1.29894 -2.5076,2.06873 -0.1844,0.18736 -0.1005,0.89774 0.1241,1.11384 0.1712,0.1334 0.3692,0.2281 0.5804,0.2776 0.2113,0.0496 0.4308,0.0528 0.6434,0.0094 0.818,-0.2406 1.5908,-0.6146 2.2871,-1.10694 1.7817,-1.37497 4.0125,-1.31331 5.9705,-0.28046 3.8418,2.0252 7.4188,1.6463 11.0828,1.0946 0.4201,-0.0277 0.8419,-0.0168 1.26,0.0325 1.028,0.8313 0.8917,1.6421 0.3691,2.3545 -0.488,0.6661 -1.134,1.2063 -1.6785,1.8302 -1.8184,2.081 -3.77,4.0655 -5.3907,6.2926 -1.6819,2.3112 -1.2073,4.482 1.2464,6.6588 1.407,1.2484 3.0116,2.2852 4.7067,3.5513 -0.347,2.9247 -1.8651,5.7873 0.7426,9.1249 2.7407,1.4073 6.2603,2.0201 8.9,4.7259 0.0807,1.0117 0.1692,2.1084 0.2693,3.4603 1.2996,-0.0416 2.3237,-0.0488 3.3366,-0.1153 0.7137,-0.048 1.4098,-0.1765 2.1418,-0.2735 0.5416,-2.7587 -1.9749,-4.1159 -3.3192,-6.1975 0.5398,-0.4019 1.1215,-0.7444 1.7348,-1.0214 1.2453,-0.4048 2.5127,-0.7385 3.7958,-0.9997 0.8525,-0.2601 1.7487,-0.3457 2.6351,-0.2515 4.3362,0.9228 8.8034,1.0546 13.1865,0.3891 l 4.1131,3.5883 c -0.7493,0.8578 -1.2324,1.7051 -1.9841,2.2179 -2.4281,1.6588 -4.9669,3.1803 -7.4426,4.7806 -1.491,0.9634 -3.2718,1.1102 -5.0889,1.0816 -2.2165,-0.0918 -4.4316,0.2137 -6.5404,0.9022 -1.5584,0.4802 -3.1931,0.6638 -4.8192,0.5412 -2.9211,-0.1538 -5.8078,0.6891 -8.1873,2.3905 -3.262,2.1935 -6.7786,4.0944 -8.8819,7.4982 -0.7981,1.2915 -1.5002,2.6452 -2.2279,3.9814 -0.4587,0.8465 -0.835,1.7547 -1.3293,2.5746 -0.4198,0.7693 -1.0772,1.382 -1.8741,1.7465 -0.7968,0.3645 -1.6903,0.4613 -2.5467,0.2759 -2.783,-0.4936 -5.6508,0.0122 -8.097,1.4281 -2.7391,1.5359 -6.0436,1.0585 -9.1561,1.1913 C 21.4394,74.277 20.4259,73.6246 19.7389,73.0511 18.4012,71.9308 17.1448,70.7169 15.9792,69.4184 15.5004,68.7996 14.8878,68.297 14.1874,67.9482 13.487,67.5994 12.7168,67.4134 11.9344,67.4041 11.0129,67.3826 10.1003,67.2194 9.22855,66.9202 7.99556,66.5193 7.17127,64.9578 7.8004,64.0157 c 0.89012,-1.2245 1.87332,-2.3786 2.9408,-3.452 0.648,-0.7052 1.524,-1.2401 2.0346,-2.032 0.3009,-0.4665 0.0842,-1.2802 0.1082,-2.223 L 8.96817,56.5288 C 7.62762,56.0182 6.76467,54.5658 5.01364,54.298 3.13174,54.0102 2.93526,53.4369 2.78147,51.4415 2.73781,50.8738 2.75382,50.311 2.74326,49.7148 l -5.91183,-3.7815 c 0.33235,-0.7634 0.48773,-1.5987 0.98006,-2.141 0.83218,-0.9189 1.906294,-1.6245 2.826,-2.4716 0.95154,-0.8748 1.74611,-1.9842 1.31962,-3.3747 -0.60086,-1.9551 0.20945,-3.404 0.86351,-4.9164 0.6222,-1.438 1.01551,-2.7861 0.45261,-4.5511 -0.99862,-3.1347 0.76356,-5.5501 1.75638,-8.1169 0.71337,-1.8455 2.68372,-2.3193 4.45614,-2.9346 0.54435,-0.1896 1.08875,-0.3824 1.64475,-0.5473 4.0358,-1.1969 4.3365,-1.1071 7.6247,2.3384 1.8804,-0.3182 2.7223,-1.7054 3.258,-3.3142 0.3362,-1.0095 -0.4574,-2.5909 -1.554,-3.046 C 18.4524,11.977 16.3939,11.2191 14.2949,10.5883 12.1632,10.0673 10.1082,9.27134 8.18171,8.22057 5.01503,6.38802 3.32081,6.5718 0.871913,8.66696 0.182708,9.35419 -0.544842,10.0018 -1.30723,10.6069 c -0.23909,0.1483 -0.50787,0.2422 -0.7873,0.2752 -0.27942,0.033 -0.56265,0.0041 -0.82968,-0.0845 C -3.1284,10.616 -3.28943,10.391 -3.3954,10.1391 -3.50138,9.88725 -3.54966,9.61489 -3.53671,9.34195 -3.19576,6.08771 -3.16487,6.09411 -5.39705,2.85549 -6.7551,2.09877 -7.7264,2.81857 -8.73973,3.27942 c -1.42277,0.64814 -2.76767,1.43294 -4.22237,2.01991 -0.6386,0.28596 -1.3543,0.35036 -2.0336,0.18295 -0.6794,-0.16741 -1.2833,-0.55701 -1.7158,-1.10694 -0.631,-0.69095 -1.3734,-1.29226 -2.1749,-2.03522 -0.0378,-0.56873 -0.1321,-1.13232 -0.2814,-1.682392 -0.4126,-1.074974 -0.5657,-2.232128 -0.4469,-3.377428 0.1187,-1.1453 0.5061,-2.24639 1.1304,-3.21386 0.7011,-1.18164 1.1131,-2.54198 1.7676,-3.75365 1.3922,-2.57919 3.0028,-4.97549 5.7211,-6.45479 1.73719,-0.9461 3.35444,-2.0721 5.08134,-3.0361 1.53973,-0.8589 2.44212,-2.1954 3.26556,-3.6162 -1.15748,-1.2206 -2.01724,0.1534 -3.14448,-0.3445 -0.17129,-0.2865 -0.59458,-0.6899 -0.60099,-1.0475 -0.03608,-2.6051 -0.10462,-5.2242 0.05563,-7.7992 0.16989,-2.7748 1.06901,-3.4573 4.18793,-3.6369 0.63226,0.0106 1.262958,0.066 1.887363,0.1659 1.184789,-2.4947 2.248357,-4.7423 3.316767,-6.9878 1.50274,-3.1507 6.60262,-5.9208 10.28018,-5.6649 1.2625,0.0876 2.5386,0.263 3.4377,1.2351 0.5007,0.5971 1.1525,1.0488 1.8874,1.3078 0.735,0.259 1.526,0.3158 2.2904,0.1645 2.0606,-0.324 4.1061,-0.6861 5.181,-2.5645 0.3449,-0.6038 0.6525,-1.2282 0.9209,-1.8697 0.2146,-0.5112 0.2961,-1.0885 0.5223,-1.5919 0.0523,-0.175 0.1426,-0.3363 0.2642,-0.4727 0.1216,-0.1363 0.2717,-0.2442 0.4396,-0.3162 0.1679,-0.0719 0.3496,-0.1062 0.5322,-0.1002 0.1826,0.006 0.3616,0.0521 0.5244,0.1349 0.253,0.1502 0.4726,0.3505 0.6454,0.5886 0.1728,0.2381 0.295,0.509 0.3594,0.7961 0.1345,1.1572 -0.0433,2.3049 0.0273,3.4659 0.1213,1.9933 1.2437,3.0528 3.3186,3.0694 1.0324,-0.0648 2.0604,-0.1876 3.0789,-0.368 0.8842,-0.1215 1.7761,-0.178 2.6685,-0.1688 0.6209,0.0945 1.2299,0.2552 1.8166,0.4793 0.2525,0.4209 0.6588,0.8163 0.6924,1.1958 0.4397,4.8243 3.679,7.8354 7.7942,10.3256 1.2217,0.7397 2.4071,1.5459 3.5916,2.3482 1.6122,1.0916 2.9932,2.2952 3.4097,4.2711 0.4409,2.0886 1.9997,2.8875 4.064,3.2623 2.7243,0.4921 5.4415,1.2175 8.1507,1.9124 0.9101,0.2354 1.7868,0.5847 2.6093,1.0397 1.4121,0.782 1.8963,2.1695 1.2171,3.4174 -0.4488,0.8247 -1.0469,1.5608 -1.6919,2.5029 2.0799,1.6328 4.2518,1.4316 6.2123,1.6418 2.0902,0.2254 4.1679,-0.1523 6.601,-0.2861 0.6556,0.9058 1.3956,1.7474 2.2102,2.5135 0.8384,0.68174 2.0059,0.9433 2.9151,1.56218 0.8731,0.66631 1.7014,1.38934 2.4796,2.16443 1.1959,1.06929 2.0567,1.24367 3.2914,0.63502 0.397,-0.15001 0.7649,-0.36809 1.087,-0.64443 0.5858,-0.72628 1.3409,-1.29772 2.199,-1.66415 0.8581,-0.36644 1.793,-0.51665 2.7228,-0.43753 1.43,0.10235 2.383,-0.87719 3.184,-1.87412 0.938,-1.1665 1.875,-2.3316 2.811,-3.495 3.297,2.6065 3.297,2.6066 7.503,2.6775 l 2.305,2.64534 5.013,-0.03869 c 0.239,0.42938 0.454,0.8717 0.643,1.32493 0.996,2.89312 2.875,4.379 5.74,4.40458 1.631,0.01418 3.245,-0.10665 5.085,-0.17482 0.36,1.26212 0.575,2.252914 0.931,3.210551 0.179,0.605217 0.551,1.135129 1.06,1.508419 0.509,0.3733 1.126,0.56936 1.757,0.55817 1.054,0.02967 2.085,-0.15133 3.138,-0.15189 0.876,-3.3e-4 1.77,0.12568 2.901,0.21554 0.001,1.1734 0.072,2.1733 -0.021,3.13792 -0.067,0.70364 -0.397,1.34734 -0.527,2.04284 -0.327,1.74634 0.011,2.78931 0.969,3.13021 1.212,0.4298 2.046,-0.0927 2.752,-0.79813 1.088,-1.08511 2.191,-2.15983 1.481,-4.09466 -0.117,-0.31977 0.373,-0.77423 0.955,-1.86456 0.178,1.42382 0.436,2.8365 0.773,4.23144 0.551,1.74536 1.779,2.38611 3.596,1.98771 0.79,-0.22817 1.568,-0.49925 2.328,-0.81205 0.03,0.65516 0.026,1.31145 -0.013,1.96615 -0.235,1.7879 0.415,3.0852 2.297,4.0351 1.326,0.7811 2.602,1.6445 3.82,2.5852 2.173,0.1291 4.987,-0.7751 6.162,2.3739 1.794,0.2596 2.389,-0.565 2.747,-1.4632 0.338,-0.9306 0.541,-1.9048 0.604,-2.8929 0.095,-1.6889 0.683,-3.3129 1.69,-4.6715 0.685,-1.0403 1.261,-2.14836 1.719,-3.30673 0.526,-1.10406 1.319,-1.76634 3.022,-1.44806 0.388,0.37196 0.753,0.76685 1.094,1.18256 0.359,0.51609 0.824,0.94937 1.364,1.27074 0.54,0.32136 1.143,0.52335 1.767,0.59235 3.025,0.38947 6.052,0.86774 9.077,1.34404 0.667,0.1322 1.327,0.2988 1.976,0.4991 0.136,0.1506 0.239,0.3285 0.301,0.5218 0.062,0.1933 0.082,0.3976 0.059,0.5992 -0.023,0.2016 -0.089,0.396 -0.193,0.5703 -0.104,0.1742 -0.244,0.3243 -0.411,0.4403 -0.992,0.9692 -2.119,1.8095 -3.11,2.7791 -1.509,1.4761 -2.698,3.1296 -2.203,5.6192 0.49,0.2486 0.926,0.6405 1.297,0.6313 2.994,-0.072 4.853,1.8015 6.567,3.9589 1.35,1.704 1.183,3.4377 -0.493,4.468 -0.625,0.3512 -1.292,0.6201 -1.986,0.7996 -1.453,0.4301 -2.542,1.1533 -3.059,2.6174 -0.331,0.7626 -0.814,1.4496 -1.419,2.0191 -1.613,1.7072 -3.259,3.3859 -4.955,5.0149 -0.571,0.6106 -1.282,1.0737 -2.071,1.3498 -0.359,0.078 -0.73,0.0814 -1.09,0.0099 -0.36,-0.0715 -0.702,-0.2163 -1.004,-0.4254 -0.456,-0.5534 -0.678,-1.2637 -0.617,-1.9786 0.153,-0.8268 0.367,-1.6411 0.64,-2.4363 0.064,-0.5096 0.082,-1.0241 0.052,-1.5369 -1.148,-0.9373 -1.9,-0.5252 -2.54,0.005 -1.488,1.2402 -2.925,2.5358 -4.616,4.0197 -0.525,-0.5937 -1.005,-1.2259 -1.436,-1.8914 -0.201,-0.3738 -0.122,-0.8613 -0.159,-1.2974 -0.314,-3.6564 -0.968,-4.0463 -4.424,-2.6752 -0.787,0.3105 -1.611,0.547 -2.251,0.7604 -0.38,-0.0849 -0.75,-0.2123 -1.103,-0.3798 -3.639,-2.5061 -3.68,-2.5114 -6.458,-0.0878 -0.298,0.2842 -0.617,0.5446 -0.956,0.7789 -0.361,0.1348 -0.76,0.1271 -1.115,-0.0215 -0.356,-0.1485 -0.642,-0.4269 -0.8,-0.7785 -0.258,-0.8539 -0.382,-1.728 -0.565,-2.5937 -0.046,-0.3892 -0.231,-0.7484 -0.522,-1.0108 -0.291,-0.2624 -0.667,-0.41 -1.059,-0.4153 -0.963,-0.0297 -1.984,0.3419 -1.918,1.2935 0.2,2.8578 0.626,5.7309 1.014,8.5978 0.022,0.1828 0.467,0.3707 0.935,0.7208 0.518,-0.5098 1.066,-1.0803 1.651,-1.6147 0.573,-0.5233 1.189,-1.015 1.692,-1.44 1.381,0.6077 1.58,1.5073 1.476,2.3565 -0.326,2.6663 -2.266,4.0056 -5.162,3.6755 -1.068,-0.1135 -2.125,-0.2449 -3.249,-0.3815 z M 112.805,18.3708 c -1.849,0.9273 -3.148,1.4812 -4.31,2.2154 -0.212,0.1732 -0.377,0.396 -0.482,0.6487 -0.105,0.2526 -0.146,0.5272 -0.119,0.7994 0.065,0.7773 0.337,1.5231 0.787,2.1601 0.45,0.637 1.062,1.1421 1.773,1.463 1.866,0.7926 3.797,1.4255 5.719,2.0383 0.693,0.2228 1.447,0.167 2.1,-0.1558 0.653,-0.3227 1.155,-0.887 1.399,-1.5733 0.275,-0.9501 -0.371,-2.2166 -1.838,-2.8532 -1.115,-0.4101 -2.135,-1.0415 -3,-1.8562 -0.864,-0.8147 -1.555,-1.7958 -2.031,-2.8844 z m 23.064,15.0726 c 3.686,0.6577 5.5,-1.0909 6.879,-3.4068 1.429,-2.4008 0.596,-3.7005 -2.425,-3.9123 -0.583,-0.0389 -1.157,0.0324 -1.972,0.0611 -0.065,1.8025 -0.788,3.5188 -2.034,4.8236 -0.446,0.4895 -0.298,1.4901 -0.45,2.4364 z M 124.019,7.45972 c -3.103,1.70113 -4.774,3.56928 -4.707,7.01628 0.781,-0.0851 1.531,0.0536 1.793,-0.2322 1.548,-1.685 3.432,-3.2331 2.912,-6.78104 z m 10.405,8.16828 c 0.258,0.1567 0.541,0.2665 0.837,0.3244 1.73,-0.0495 3.101,-0.7205 3.824,-2.1577 0.193,-0.3843 -0.056,-1.1441 -0.343,-1.6185 -0.159,-0.1608 -0.352,-0.2837 -0.564,-0.3594 -0.213,-0.0757 -0.44,-0.1022 -0.665,-0.0776 -1.09,0.268 -2.144,0.6689 -3.137,1.1938 -0.794,0.455 -0.662,2.1634 0.046,2.6981 z m -0.431,-7.29838 c 0.206,-0.76998 0.425,-1.42668 0.555,-2.11533 0.036,-0.22288 0.017,-0.45126 -0.055,-0.66513 -0.073,-0.21386 -0.196,-0.40666 -0.361,-0.5616 -0.164,-0.15493 -0.364,-0.26726 -0.581,-0.3271 -0.218,-0.05984 -0.447,-0.06542 -0.668,-0.0162 -0.423,0.06576 -0.825,0.23395 -1.168,0.48992 -0.344,0.25598 -0.621,0.592 -0.805,0.97893 -0.185,0.38695 -0.272,0.81313 -0.255,1.24148 0.018,0.42836 0.14,0.84593 0.355,1.21655 0.129,0.18079 0.297,0.33031 0.491,0.43741 0.195,0.1071 0.411,0.16905 0.633,0.1813 0.649,-0.21364 1.273,-0.50125 1.857,-0.85718 z M -0.694637,-30.7651 c 2.506697,0.0489 3.510077,-0.4804 3.960707,-2.0845 0.17157,-0.6108 -0.6369,-1.6277 -1.29029,-1.5299 -0.70058,0.0427 -1.381143,0.2505 -1.9861094,0.6063 -0.4598506,0.3335 -0.7829436,0.8225 -0.9091716,1.3764 -0.126219,0.5538 -0.046995,1.1345 0.22296,1.6343 z M 120.744,2.7938 c -0.199,-0.30702 -0.377,-0.87479 -0.678,-0.98193 -1.618,-0.57467 -3.398,0.07074 -3.956,1.43402 0.007,0.20433 0.063,0.40409 0.162,0.58283 0.099,0.17874 0.239,0.33139 0.409,0.4454 0.745,0.23635 1.547,0.21949 2.281,-0.04795 0.735,-0.26745 1.36,-0.77044 1.778,-1.43048 z"
     fill="#73835b"
     id="path4"
     clip-path="url(#clipPath322)" />
  <path
     d="m 436.469,48.0551 c -1.32,0.0932 -2.707,0.1864 -4.174,0.2889 -0.264,0.7066 -0.303,1.4783 -0.11,2.2078 0.192,0.7296 0.606,1.381 1.185,1.8638 0.85,0.822 1.71,1.6357 2.508,2.5234 0.302,0.4199 0.556,0.8734 0.755,1.3515 -0.455,1.522 -1.497,1.6697 -2.505,1.7666 -1.964,0.1892 -4.036,-0.8877 -6.559,-3.3292 -0.396,-1.7741 -0.172,-3.6377 -0.108,-5.4989 0.139,-4.0356 -2.407,-7.5028 -5.864,-7.9008 -1.101,-0.1939 -2.227,-0.1857 -3.325,0.0243 -2.3,0.6016 -4.146,-0.2642 -5.959,-1.7518 -1.812,-1.4875 -3.687,-2.8729 -5.589,-4.2024 -0.557,-0.3901 -1.295,-0.4362 -2.09,-0.6837 l -0.673,2.4471 c -0.163,0.1309 -0.311,0.3262 -0.49,0.3802 -0.681,0.2153 -1.374,0.3886 -2.075,0.5187 -0.412,0.1048 -0.846,0.0756 -1.24,-0.0836 -0.394,-0.1592 -0.727,-0.44 -0.952,-0.8018 -1.203,-2.0318 -3.186,-3.2001 -4.234,-5.4575 -0.732,-1.5765 -2.448,-1.5844 -3.235,-0.0932 -0.358,0.7709 -0.931,1.4216 -1.649,1.8739 -0.718,0.4524 -1.551,0.6871 -2.399,0.6761 -0.404,0.0472 -0.806,0.1185 -1.202,0.2134 -0.99,0.1725 -1.811,-0.027 -2.215,-1.2582 -0.149,-0.5206 -0.449,-0.985 -0.862,-1.3342 -0.412,-0.3492 -0.919,-0.5674 -1.456,-0.6268 -1.338,-0.2687 -2.57,-0.9231 -3.544,-1.8831 -0.611,-0.5667 -1.384,-1.1413 -2.128,-1.2317 -1.752,-0.2134 -3.321,-0.9623 -4.931,-1.6655 -1.411,-0.6165 -2.868,-1.0891 -4.474,-0.8244 -0.551,1.0128 -0.908,2.1207 -1.05,3.2658 -0.356,1.9023 -0.139,3.4392 1.609,4.3619 0.996,0.5266 2.126,1.1939 1.904,2.7961 -0.186,1.3425 -1.297,1.7046 -2.215,2.1581 -0.836,0.4124 -1.757,0.6128 -2.571,1.069 -0.75,0.3896 -1.416,0.9246 -1.959,1.5742 -0.22,0.2605 -0.379,0.5662 -0.468,0.8955 -0.089,0.3293 -0.104,0.6741 -0.045,1.0101 0.059,0.3359 0.19,0.6548 0.386,0.934 0.195,0.2791 0.449,0.5118 0.744,0.6816 0.785,0.4975 1.649,0.858 2.554,1.0662 2.5,0.4912 3.916,2.7728 5.733,4.394 0.311,1.7056 1.655,2.9783 1.61,4.7999 -0.029,0.6209 0.088,1.2398 0.341,1.8072 0.253,0.5674 0.634,1.0676 1.114,1.4605 0.62,0.5634 1.186,1.206 1.902,1.9433 -0.363,0.7139 -0.763,1.408 -1.199,2.0793 -0.723,0.9907 -0.993,1.9931 -0.448,3.2122 0.172,0.4285 0.282,0.8796 0.325,1.3393 0.066,0.3893 0.009,0.7894 -0.162,1.145 -0.171,0.3556 -0.448,0.649 -0.793,0.8398 -0.371,0.1763 -0.762,0.3094 -1.163,0.3965 -1.612,0.3273 -3.17,0.8817 -4.627,1.6469 -0.935,0.4103 -1.924,0.685 -2.936,0.816 -1.397,0.2824 -2.809,0.4623 -4.209,0.726 -0.402,0.0859 -0.787,0.2395 -1.139,0.4544 -0.292,0.2358 -0.558,0.503 -0.792,0.7969 0.441,0.6491 0.836,1.2936 1.286,1.8775 0.642,0.8005 1.058,1.7597 1.203,2.777 0.188,1.3375 -0.035,2.0677 -1.127,2.4773 -1.614,0.5601 -3.003,1.6306 -3.958,3.0505 -0.715,1.0499 -1.904,0.6026 -2.407,-0.692 -0.473,-1.2005 -0.506,-2.5303 -0.093,-3.7528 0.236,-0.6489 0.327,-1.342 0.267,-2.0302 -0.061,-0.6882 -0.271,-1.3547 -0.617,-1.9523 -0.433,-0.7513 -0.711,-1.5828 -0.817,-2.4445 -0.105,-0.8617 -0.036,-1.7359 0.203,-2.5703 0.487,-1.7629 0.639,-3.6465 0.958,-5.4728 0.3,-1.7168 0.016,-2.5267 -1.362,-3.4839 -0.85,-0.5904 -1.743,-1.0993 -2.462,-1.5472 -0.337,-1.2237 0.18,-1.8458 0.677,-2.4078 0.756,-0.8552 1.362,-1.851 1.321,-3.0501 -0.098,-2.9274 1.512,-4.7067 3.079,-6.5414 0.213,-0.2432 0.453,-0.4608 0.716,-0.6482 1.141,-0.8355 1.611,-2.0425 1.54,-3.571 -0.021,-0.234 -0.005,-0.4698 0.046,-0.699 0.589,-2.1227 -0.059,-3.6004 -1.718,-4.6378 -0.834,-0.5666 -1.431,-1.4219 -1.676,-2.4023 -0.239,-0.637 -0.516,-1.2594 -0.828,-1.864 -1.013,-2.3105 -2.462,-3.7584 -4.812,-4.278 -2.913,-0.644 -3.643,-3.2001 -1.983,-5.9873 0.115,-0.1925 0.261,-0.3588 0.379,-0.548 0.9,-1.4423 4.207,-4.484 5.62,-5.5381 1.085,-0.8099 1.972,-1.9703 2.988,-3.0174 -0.101,-0.7068 -0.155,-1.4195 -0.163,-2.1334 0.096,-1.8212 -0.387,-3.18287 -1.956,-3.89308 -0.726,-0.32853 -0.918,-1.09606 -1.13,-1.92788 -0.312,-1.21536 -1.224,-1.59841 -2.116,-0.95066 -0.559,0.5009 -1.081,1.04129 -1.563,1.61705 -0.99,0.97537 -2.133,0.89196 -2.926,-0.22461 -0.781,-0.99964 -1.166,-2.25403 -1.081,-3.52165 0.12,-1.61379 -0.061,-3.2620748 0.102,-4.86609 0.198,-1.20389 0.486,-2.39119 0.861,-3.55193 -0.143,-0.42771 -0.411,-0.8024 -0.769,-1.07539 -0.358,-0.27299 -0.789,-0.43168 -1.238,-0.45545 -1.626,-0.16124 -2.926,0.69901 -4.273,1.85378 -0.052,0.42278 -0.046,0.85074 0.019,1.27176 0.13,0.44039 0.156,0.90534 0.075,1.35746 -0.082,0.45211 -0.268,0.87878 -0.543,1.24567 -0.83,1.315079 -1.575,2.70287 -2.34,4.02959 l 0.612,2.30862 c -0.194,0.29918 -0.279,0.54757 -0.437,0.65242 -0.424,0.30487 -0.882,0.55799 -1.365,0.75401 -0.832,0.2706 -1.576,0.7623 -2.152,1.42289 -0.576,0.66059 -0.963,1.4654 -1.12,2.32899 -0.22,0.7083 -0.498,1.3971 -0.831,2.0593 0.294,1.4749 1.283,1.9572 2.094,2.6273 0.699,0.484 1.367,1.0115 2.001,1.5793 0.49,0.6469 0.917,1.3395 1.276,2.0682 -1.381,0.9651 -2.454,0.8728 -3.429,-0.2409 -0.855,-0.9786 -1.845,-1.4661 -3.023,-1.1958 -0.471,0.1925 -0.91,0.454 -1.304,0.7759 0.659,2.0724 2.478,1.4964 3.56,2.3398 -0.065,0.3048 -0.049,0.6031 -0.169,0.7256 -1.204,1.2345 -2.325,2.6432 -3.688,3.5804 -0.887,0.61 -2.141,0.7307 -3.222,0.699 -1.783,-0.0513 -2.784,-1.8212 -2.418,-3.9378 0.059,-0.3378 0.236,-0.6491 0.29,-0.9875 -0.005,-0.2558 -0.045,-0.5097 -0.12,-0.7544 -2.071,-0.7387 -4.168,-1.5346 -6.293,-2.2178 -0.362,-0.0912 -0.744,-0.0606 -1.088,0.087 -0.343,0.1477 -0.628,0.4043 -0.812,0.7304 -0.493,0.7069 -0.903,1.4912 -1.459,2.4288 -0.509,-0.4045 -0.917,-0.6948 -1.29,-1.0359 -0.476,-0.4343 -0.89,-0.9651 -1.388,-1.3566 -1.342,-1.0531 -2.281,-0.9077 -3.329,0.6804 -0.563,0.8547 -1.068,1.3799 -1.743,0.9814 -0.976,-2.0663 -1.835,-3.886 -2.698,-5.7025 -0.194,-0.4092 -0.418,-0.8006 -0.608,-1.2117 -0.662,-1.4288 -0.821,-2.7718 0.054,-4.2635 0.737,-1.25823 1.358,-2.53649 2.466,-3.47924 1.127,-0.95951 0.96,-1.83095 -0.344,-2.605 -0.527,-0.31269 -1.087,-0.55035 -1.552,-0.78243 -0.11,-0.78616 0.193,-1.00565 0.647,-0.99214 1.112,0.03309 2.224,0.15332 3.334,0.13469 0.632,0.01644 1.258,-0.12346 1.823,-0.407353 0.565,-0.283897 1.052,-0.703041 1.417,-1.220428 0.891,-1.235399 2.041,-1.730779 3.414,-2.009449 2.808,-0.57039 4.652,-2.60965 5.794,-5.60144 0.65,-1.70234 1.408,-3.35531 2.196,-4.98031 0.912,-1.8831 2.359,-2.8543 4.238,-2.8669 1.687,-0.0111 3.395,-0.0796 5.187,1.0831 l -1.35,1.6002 c -0.057,0.1916 -0.076,0.3927 -0.054,0.5914 0.273,0.625 0.505,1.2679 0.692,1.9242 0.181,1.02519 0.1,2.18276 1.111,2.69118 1.115,0.56154 2.263,1.10677 3.512,0.4977 0.278,-0.13515 0.535,-0.32108 1.032,-0.62305 0.186,-1.06764 0.362,-2.31793 0.626,-3.54173 0.279,-1.3001 1.268,-1.9819 2.319,-1.4819 0.825,0.4503 1.59,1.0038 2.276,1.6474 0.28,0.3452 0.525,0.7174 0.732,1.1109 1.39,1.85011 1.843,1.84311 3.739,-0.0932 l -0.836,-2.097 c 0.836,-1.165 1.971,-1.2009 2.813,-1.5714 1.043,0.6235 1.12,1.6082 1.456,2.4461 0.331,0.7094 0.719,1.3902 1.161,2.03553 -0.256,2.89392 -0.499,5.54087 -0.712,8.19108 -0.035,0.34688 0.029,0.696493 0.185,1.007979 0.621,1.032676 1.038,2.279721 2.161,2.984791 l 4.12,-2.176266 c 0.093,-0.748878 0.137,-1.439974 0.265,-2.110094 0.278,-1.46094 0.913,-2.60966 2.26,-2.99133 1.482,-0.42174 2.468,-1.97681 4.067,-2.20889 1.4,-0.20364 2.761,-0.74235 4.15,-1.07182 1.039,-0.23847 2.019,-0.68654 2.88,-1.31696 0.861,-0.63041 1.585,-1.43002 2.128,-2.35012 0.756,-1.227 1.669,-1.6124 2.871,-1.3477 0.756,0.1529 1.534,0.1529 2.29,-10e-5 0.755,-0.153 1.473,-0.4559 2.11,-0.8909 0.923,-0.5699 1.249,-1.206 0.771,-2.2834 -0.696,-1.5691 -0.674,-3.1265 -0.413,-5.0446 3.049,-1.6972 6.206,-3.455 9.225,-5.1354 l 1.645,-4.7622 c -0.816,-2.2275 -2.856,-4.0343 -1.368,-6.6174 -2.618,-2.3473 -2.618,-2.3473 -3.314,-5.3763 0.137,-0.1501 0.259,-0.3975 0.429,-0.4539 2.082,-0.6893 3.083,-2.4046 3.608,-4.7165 0.268,-1.2236 0.711,-2.4018 1.315,-3.4979 0.502,-0.8999 0.548,-2.1991 0.625,-3.3366 0.082,-1.2187 0.249,-2.277 1.19,-3.0505 0.403,-0.3801 0.723,-0.8404 0.939,-1.3515 0.571,-1.1995 0.768,-2.4116 -0.137,-3.5678 -0.203,-0.3438 -0.375,-0.7059 -0.513,-1.0816 0.867,-0.6393 1.795,-1.1258 2.492,-1.892 0.705,-0.7768 1.181,-1.83 1.811,-2.8496 1.318,-0.3262 2.526,0.2633 3.676,1.0131 0.521,0.3382 0.95,0.8023 1.246,1.3499 0.297,0.5475 0.451,1.1609 0.45,1.784 -0.01,0.9258 -0.082,1.8499 -0.214,2.7662 -0.145,1.3878 -0.506,2.7882 -0.422,4.1545 0.104,1.7047 -0.104,3.2001 -1.077,4.4271 0.555,0.9651 1.564,1.5528 0.851,2.846 -0.147,0.3153 -0.216,0.6618 -0.2,1.0097 0.017,0.3478 0.117,0.6865 0.293,0.9867 0.18,0.3937 0.418,0.9944 0.281,1.2983 -0.738,1.665 0.131,2.7862 1.05,3.6209 1.285,1.165 1.858,2.6991 2.352,4.373 -0.982,1.2582 -2.495,0.6524 -3.609,1.3869 -0.271,0.1882 -0.458,0.4747 -0.521,0.7987 0.007,0.3303 0.135,0.6464 0.36,0.8878 0.245,0.1927 0.519,0.3457 0.811,0.4534 0.449,0.2512 0.893,0.5126 1.298,0.7456 -0.098,1.2713 -0.127,2.5468 -0.089,3.8213 0.09,1.1389 0.626,1.672 1.622,1.6949 0.906,0.0171 1.809,-0.1066 2.678,-0.3668 0.987,-0.2945 1.925,-0.6333 2.863,-0.0317 0.229,1.5248 -0.455,2.3101 -1.499,2.7071 -0.599,0.1743 -1.14,0.5079 -1.566,0.9654 -0.425,0.4574 -0.72,1.0219 -0.852,1.6335 l 1.496,2.1278 -1.553,2.4387 c 0.319,0.2526 0.501,0.5103 0.622,0.4762 2.457,-0.6817 4.897,-1.4474 7.361,-2.0858 1.471,-0.3808 2.699,-0.9153 3.086,-2.8581 0.179,-0.5188 0.497,-0.9781 0.919,-1.3276 1.451,-1.4549 2.988,-2.8003 4.388,-4.3158 1.205,-1.3048 2.567,-1.6813 4.162,-1.6739 2.381,-0.072 4.72,0.644 6.656,2.0374 0.677,0.501 1.409,0.9046 2.09,1.337 0.641,1.494 0.421,3.0375 0.423,4.5352 0.016,15.19665 0.019,30.39357 0.01,45.5908 0,7.363 0.011,14.7292 -0.01,22.0936 -0.004,1.3817 0.207,2.8128 -0.496,4.2621 z m -40.61,-67.2421 c -1.33,-0.7419 -2.422,-1.7121 -3.819,-1.4912 -0.365,0.0568 -0.91,0.2544 -1.006,0.5471 -0.154,0.5354 -0.145,1.105 0.026,1.6352 0.112,0.3609 0.35,0.6693 0.67,0.8692 0.32,0.2 0.7,0.2782 1.073,0.2203 0.993,-0.1062 1.973,-0.3728 3.162,-0.6118 1.583,1.1184 3.295,2.3365 5.016,3.5416 0.41,0.3225 0.854,0.5993 1.324,0.8254 0.847,0.3457 1.579,0.0191 2.198,-0.6991 0.137,-0.1396 0.241,-0.3092 0.302,-0.4955 0.062,-0.1862 0.08,-0.3843 0.053,-0.5787 -0.027,-0.1944 -0.098,-0.3799 -0.208,-0.5423 -0.11,-0.1623 -0.256,-0.2971 -0.426,-0.3938 -0.705,-0.3426 -1.431,-0.6236 -2.508,-1.0863 l 2.348,-2.0915 c -1.895,-1.165 -3.138,-3.9382 -5.819,-2.8426 -0.95,2.0341 -0.95,2.0341 -2.386,3.194 z M 328.84,3.33251 c 1.836,0.13981 2.774,-0.45249 3.548,-1.45954 0.297,-0.34834 0.458,-0.79332 0.453,-1.251957 -0.006,-0.458641 -0.177,-0.899635 -0.483,-1.240738 -2.006,-2.305825 -4.453,-1.438565 -5.742,0.564346 -0.501,0.778236 -0.378,2.011769 0.331,2.469849 0.605,0.3585 1.239,0.66528 1.895,0.91711 z M 317.949,10.8353 C 315.939,9.94102 314.045,9.02716 312.347,7.55458 311.89,7.158 310.994,7.32157 310.32,7.42176 c -0.291,0.04241 -0.618,0.5238 -0.756,0.89148 -0.012,0.16145 0.009,0.3236 0.061,0.47694 0.051,0.15334 0.133,0.29476 0.24,0.41594 0.265,0.32707 0.602,0.58896 0.983,0.76565 2.24,0.95193 4.702,1.25093 7.103,0.86263 z m 73.073,-36.8251 c 0.09,0.1733 0.155,0.4557 0.276,0.493 0.159,0.0494 0.362,-0.0932 0.547,-0.1556 -0.101,-0.1743 -0.174,-0.439 -0.312,-0.4973 -0.138,-0.0582 -0.337,0.0965 -0.511,0.1599 z m -63.67,38.0549 0.084,-0.2596 -0.268,0.1673 c 0.061,0.0303 0.125,0.0615 0.184,0.0923 z"
     fill="#dc8c46"
     id="path6"
     clip-path="url(#clipPath316)" />
  <defs
     id="defs15">
    <clipPath
       clipPathUnits="userSpaceOnUse"
       id="clipPath310">
      <g
         id="g314">
        <rect
           width="437"
           height="107"
           fill="#ffffff"
           id="rect312"
           x="0"
           y="0" />
      </g>
    </clipPath>
    <clipPath
       clipPathUnits="userSpaceOnUse"
       id="clipPath316">
      <g
         id="g320">
        <rect
           width="437"
           height="107"
           fill="#ffffff"
           id="rect318"
           x="0"
           y="0" />
      </g>
    </clipPath>
    <clipPath
       clipPathUnits="userSpaceOnUse"
       id="clipPath322">
      <g
         id="g326">
        <rect
           width="437"
           height="107"
           fill="#ffffff"
           id="rect324"
           x="0"
           y="0" />
      </g>
    </clipPath>
    <clipPath
       clipPathUnits="userSpaceOnUse"
       id="clipPath328">
      <g
         id="g332">
        <rect
           width="437"
           height="107"
           fill="#ffffff"
           id="rect330"
           x="0"
           y="0" />
      </g>
    </clipPath>
  </defs>
</svg>
