<?xml version="1.0" encoding="UTF-8" standalone="no"?>
<!-- Created with Inkscape (http://www.inkscape.org/) -->

<svg
   width="24"
   height="24"
   viewBox="0 0 6.3500001 6.3500001"
   version="1.1"
   id="svg5"
   xml:space="preserve"
   inkscape:version="1.2.2 (b0a8486541, 2022-12-01)"
   sodipodi:docname="icon.svg"
   xmlns:inkscape="http://www.inkscape.org/namespaces/inkscape"
   xmlns:sodipodi="http://sodipodi.sourceforge.net/DTD/sodipodi-0.dtd"
   xmlns="http://www.w3.org/2000/svg"
   xmlns:svg="http://www.w3.org/2000/svg"><sodipodi:namedview
     id="namedview7"
     pagecolor="#ffffff"
     bordercolor="#000000"
     borderopacity="0.25"
     inkscape:showpageshadow="2"
     inkscape:pageopacity="0.0"
     inkscape:pagecheckerboard="0"
     inkscape:deskcolor="#d1d1d1"
     inkscape:document-units="mm"
     showgrid="true"
     inkscape:zoom="58.508831"
     inkscape:cx="17.219623"
     inkscape:cy="11.1778"
     inkscape:window-width="2560"
     inkscape:window-height="1277"
     inkscape:window-x="2560"
     inkscape:window-y="32"
     inkscape:window-maximized="1"
     inkscape:current-layer="layer1"><inkscape:grid
       type="xygrid"
       id="grid1733" /></sodipodi:namedview><defs
     id="defs2" /><g
     inkscape:label="Layer 1"
     inkscape:groupmode="layer"
     id="layer1"><rect
       style="fill:#3d521e;fill-opacity:1;stroke:none;stroke-width:0.489478;stroke-linecap:round;stroke-linejoin:round;paint-order:stroke fill markers"
       id="rect2879"
       width="6.3499999"
       height="6.3499999"
       x="0"
       y="0"
       rx="0.48073167"
       ry="0.4983843" /><path
       d="m 3.524951,5.2846014 c 0,-0.00437 -0.014639,-0.016135 -0.032529,-0.026149 C 3.3617157,5.1853013 3.2597265,5.0631775 3.223255,4.9361462 3.1936768,4.8331258 3.194982,4.875621 3.1927798,3.9440209 l -0.00203,-0.864839 0.1176075,0.00302 c 0.1277348,0.00328 0.1800013,0.01147 0.2798387,0.043841 0.2027841,0.06575 0.4122795,0.2274026 0.5697673,0.4396526 0.026028,0.035077 0.046938,0.057985 0.052929,0.057985 0.00938,0 0.00991,-0.033714 0.00991,-0.6307737 0,-0.6093829 -3.613e-4,-0.6307733 -0.010441,-0.6307733 -0.00703,0 -0.020097,0.015802 -0.040001,0.048375 C 4.097677,2.5294421 3.9935159,2.6458207 3.9001765,2.7123798 3.7397822,2.8267557 3.5243314,2.8882522 3.2840137,2.8882522 H 3.1911893 V 2.2747575 c 0,-0.3960232 0.00219,-0.6391523 0.00618,-0.685875 0.017516,-0.2049759 0.086894,-0.3170633 0.2226948,-0.3597896 0.057336,-0.018041 0.2101639,-0.017555 0.2972361,9.547e-4 0.1549586,0.03292 0.2731662,0.088759 0.4242875,0.2004203 0.1671211,0.1234842 0.3128998,0.2717903 0.5183331,0.5273217 0.063579,0.079083 0.2017793,0.2619955 0.2340697,0.3097973 0.015865,0.023487 0.016616,0.02383 0.030258,0.013855 0.00915,-0.00669 0.00188,-0.054622 -0.1101711,-0.7269467 C 4.7029957,0.88795724 4.6933116,0.83470996 4.6831778,0.83470996 c -0.00612,0 -0.028743,0.0181771 -0.051391,0.0413074 -0.1055825,0.10782561 -0.252055,0.16718424 -0.4562497,0.18489634 -0.040586,0.00352 -0.5007502,0.00565 -1.2233619,0.00568 -1.0092333,3.2e-5 -1.1583042,0.00111 -1.1583042,0.00828 0,0.00452 0.011694,0.013392 0.025983,0.019714 0.067941,0.030052 0.1510296,0.1001266 0.1941669,0.163748 0.047147,0.069527 0.080224,0.1562842 0.096987,0.254369 0.010686,0.062528 0.010976,0.1063926 0.010976,1.6670522 0,1.1030419 -0.00189,1.6166333 -0.00598,1.6470875 -0.025654,0.1882665 -0.1172397,0.3276585 -0.2782076,0.4234081 -0.024137,0.014355 -0.043884,0.029747 -0.043884,0.034201 0,0.007 0.1182196,0.00811 0.865547,0.00811 0.7394572,0 0.8655453,-0.00116 0.8655453,-0.00795 z"
       style="fill:#ffffff;stroke-width:0.00565718"
       id="path1713" /></g></svg>
