<?xml version="1.0" encoding="UTF-8" standalone="no"?>
<svg
   width="26.063723"
   height="13.063334"
   viewBox="0 0 26.063723 13.063334"
   fill="none"
   version="1.1"
   id="svg15"
   sodipodi:docname="Group 1.svg"
   inkscape:version="1.3 (0e150ed6c4, 2023-07-21)"
   xmlns:inkscape="http://www.inkscape.org/namespaces/inkscape"
   xmlns:sodipodi="http://sodipodi.sourceforge.net/DTD/sodipodi-0.dtd"
   xmlns="http://www.w3.org/2000/svg"
   xmlns:svg="http://www.w3.org/2000/svg">
  <sodipodi:namedview
     id="namedview15"
     pagecolor="#ffffff"
     bordercolor="#000000"
     borderopacity="0.25"
     inkscape:showpageshadow="2"
     inkscape:pageopacity="0.0"
     inkscape:pagecheckerboard="0"
     inkscape:deskcolor="#d1d1d1"
     inkscape:zoom="6.1940928"
     inkscape:cx="24.53951"
     inkscape:cy="-2.0180518"
     inkscape:window-width="2490"
     inkscape:window-height="1371"
     inkscape:window-x="2630"
     inkscape:window-y="32"
     inkscape:window-maximized="1"
     inkscape:current-layer="svg15" />
  <path
     d="m 22.166623,8.66669 3.8971,-3 h -7.7942 z"
     fill="#000000"
     id="path9" />
  <path
     fill-rule="evenodd"
     clip-rule="evenodd"
     d="m 2.5565934,2.86247 0.47441,0.21511 c 1.25002,0.56676 2.70822,-0.13551 3.04452,-1.4662 l 0.1278,-0.50569 c 0.0483,-0.19124 0.8778,-0.19116 0.9263,-2e-5 l 0.1278,0.50571 c 0.3362,1.33066 1.7945,2.03293 3.0444996,1.4662 l 0.4746,-0.21522 c 0.2299,-0.10408 0.7556,0.4901 0.5783,0.7236 l -0.316,0.41561 c -0.8308,1.09252 -0.4706,2.67062 0.7519,3.29442 l 0.4651,0.2374 c 0.223,0.1138 -0.0024,0.898 -0.2046,0.9028 l -0.5235,0.012 c -1.3721,0.0318 -2.3812996,1.2972 -2.1068996,2.642 l 0.1045,0.512 c 0.052,0.2543 -0.683,0.5829 -0.8334,0.4025 l -0.3359,-0.4017 c -0.8803,-1.053 -2.4989,-1.053 -3.3792,0 l -0.3357,0.4016 c -0.1987,0.2379 -0.8908,-0.1219 -0.8335,-0.4026 l 0.1045,-0.5118 c 0.2744,-1.3448 -0.73483,-2.6102 -2.10689,-2.642 l -0.52322,-0.012 c -0.26638,-0.0063 -0.47103001,-0.7667 -0.20454,-0.903 l 0.46478,-0.2372 c 1.22246,-0.6238 1.58266,-2.2018 0.75193,-3.29442 l -0.31584,-0.41539 c -0.16126,-0.21207 0.30556,-0.84736 0.57825,-0.72371 z m 2.54943,-1.49607 c -0.1835,0.7264 -0.9796,1.1098 -1.66203,0.8004 l -0.47442,-0.2151 c -0.42687,-0.19355 -0.93454,-0.12768 -1.25234,0.2168 -0.21786,0.23614 -0.41904,0.4879 -0.60166,0.7534 -0.26571001,0.38635 -0.21705001,0.89627 0.06676,1.26947 l 0.31583,0.41539 c 0.4535,0.59643 0.25688,1.45793 -0.41049,1.79853 l -0.46477001,0.2372 c -0.41703,0.2128 -0.68213,0.6501 -0.61155,1.113 0.04911,0.3222 0.12106,0.6369 0.21416,0.9423 0.13651,0.448 0.5652,0.7272 1.03340001,0.738 l 0.52321,0.0121 c 0.74907,0.0173 1.3,0.7082 1.1502,1.4423 l -0.10443,0.5118 c -0.0936,0.4587 0.083,0.9386 0.4889,1.1718 0.27823,0.1599 0.56893,0.3005 0.87043,0.42 0.4353,0.1725 0.9208,0.0114 1.2211,-0.3478 l 0.3358,-0.4017 c 0.4806,-0.5749 1.3642,-0.5749 1.8447,0 l 0.3359,0.4017 c 0.3003,0.3593 0.7858,0.5204 1.2211,0.3479 0.3014,-0.1195 0.5922,-0.26 0.8703996,-0.4199 0.4059,-0.2332 0.5826,-0.7131 0.489,-1.1718 l -0.1045,-0.512 c -0.1498,-0.7342 0.4011,-1.425 1.1502,-1.4423 l 0.5235,-0.0121 c 0.4682,-0.0108 0.8969,-0.29 1.0334,-0.738 0.0931,-0.3054 0.165,-0.62 0.2142,-0.9421 0.0705,-0.4629 -0.1946,-0.9002 -0.6116,-1.1131 l -0.465,-0.2373 c -0.6674,-0.3406 -0.864,-1.2021 -0.4106,-1.79853 l 0.316,-0.4156 c 0.2838,-0.37328 0.3325,-0.8832 0.0668,-1.26954 -0.1826,-0.26547 -0.3838,-0.51719 -0.6016,-0.75326 -0.3178,-0.34447 -0.8255,-0.41034 -1.2524,-0.21679 L 9.8890234,2.16678 c -0.6824,0.3094 -1.4785,-0.07398 -1.6621,-0.8004 l -0.1277,-0.50571 C 7.9842234,0.40594 7.6158234,0.05 7.1479234,0.01694 6.9889234,0.00571 6.8284234,0 6.6666234,0 c -0.1619,0 -0.3225,0.00572 -0.4816,0.01696 -0.4678,0.03308 -0.8363,0.38902 -0.9512,0.84374 z m 2.894,5.30029 c 0,0.7364 -0.597,1.3334 -1.3334,1.3334 -0.7364,0 -1.3333,-0.597 -1.3333,-1.3334 0,-0.7364 0.5969,-1.3333 1.3333,-1.3333 0.7364,0 1.3334,0.5969 1.3334,1.3333 z m 1,0 c 0,1.2886 -1.0447,2.3334 -2.3334,2.3334 -1.2886,0 -2.3333,-1.0448 -2.3333,-2.3334 0,-1.2886 1.0447,-2.33329 2.3333,-2.33329 1.2887,0 2.3334,1.04469 2.3334,2.33329 z"
     fill="#000000"
     id="path10" />
  <defs
     id="defs15">
    <linearGradient
       id="paint0_linear_562_2786"
       x1="192"
       y1="0"
       x2="192"
       y2="24"
       gradientUnits="userSpaceOnUse">
      <stop
         stop-color="#637D52"
         id="stop10" />
      <stop
         offset="1"
         stop-color="#4E6133"
         id="stop11" />
    </linearGradient>
    <linearGradient
       id="paint1_linear_562_2786"
       x1="94"
       y1="0"
       x2="94"
       y2="24"
       gradientUnits="userSpaceOnUse">
      <stop
         stop-color="#637D52"
         id="stop12" />
      <stop
         offset="1"
         stop-color="#4E6133"
         id="stop13" />
    </linearGradient>
    <linearGradient
       id="paint2_linear_562_2786"
       x1="20.5"
       y1="0"
       x2="20.5"
       y2="24"
       gradientUnits="userSpaceOnUse">
      <stop
         stop-color="#FDFDFD"
         id="stop14" />
      <stop
         offset="1"
         stop-color="#ECECEC"
         id="stop15" />
    </linearGradient>
  </defs>
</svg>
